<svg width="60" height="60" viewBox="0 0 60 60" fill="none" xmlns="http://www.w3.org/2000/svg">
<path d="M30 60C46.5685 60 60 46.5685 60 30C60 13.4315 46.5685 0 30 0C13.4315 0 0 13.4315 0 30C0 46.5685 13.4315 60 30 60Z" fill="#4285F4"/>
<path d="M44.7752 18.9419C44.1864 15.596 40.6361 13.2941 37.082 14.0878C33.7386 14.8345 31.4409 17.3168 27.883 16.0769C26.0551 15.4398 24.2239 14.7168 22.3651 14.1783C20.0187 13.4985 17.2384 14.8844 15.9037 16.8753C14.575 18.8576 15.3208 21.4762 15.618 23.6571C16.0155 26.575 16.4134 29.4929 16.8109 32.4107C17.078 34.3698 17.3879 36.3285 17.5872 38.296C17.7968 40.3601 17.8268 42.8183 19.3397 44.426C20.5153 45.6756 24.3454 47.2613 24.7581 44.6106C25.203 41.7536 24.4864 38.6952 24.7759 35.8201C25.4003 29.619 34.9595 30.0601 35.2647 36.2201C35.3997 38.9407 34.7736 41.986 35.2647 44.6664C35.776 47.4577 39.9071 45.4529 40.9823 44.0776C41.8886 42.9186 41.9729 41.5894 42.1486 40.2128C42.5727 36.8843 43.0553 33.5622 43.5082 30.2379C43.9442 27.0394 44.4226 23.8434 44.8163 20.6393C44.8882 20.0518 44.8704 19.4833 44.7752 18.9419ZM22.7449 17.9001C20.6283 20.6677 20.4785 25.4168 20.5123 27.334C20.5149 27.4821 20.227 27.5317 20.1622 27.3949C16.2195 19.0388 21.2019 17.8768 22.5785 17.7155C22.7241 17.6986 22.8185 17.8036 22.7449 17.9001Z" fill="white"/>
</svg>
