<svg width="16" height="20" viewBox="0 0 16 20" fill="none" xmlns="http://www.w3.org/2000/svg">
<path d="M7.99997 12C10.206 12 12 10.206 12 8C12 5.794 10.206 4 7.99997 4C5.79397 4 3.99997 5.794 3.99997 8C3.99997 10.206 5.79397 12 7.99997 12ZM7.99997 5.5C9.99994 5.5 10.5 6.897 10.5 8C10.5 9.103 9.70796 10.5 8 10.5C6.5 10.5 5.5 9.103 5.5 8C5.5 6.897 6 5.5 7.99997 5.5Z" fill="#4285F4"/>
<path d="M7.41997 19.814C7.58922 19.9349 7.792 19.9998 7.99997 19.9998C8.20794 19.9998 8.41072 19.9349 8.57997 19.814C8.88397 19.599 16.029 14.44 16 8C16 3.589 12.411 0 7.99997 0C3.58897 0 -3.02179e-05 3.589 -3.02179e-05 7.995C-0.0290302 14.44 7.11597 19.599 7.41997 19.814ZM7.99997 1C11.309 1 15 4.686 15 8C15.021 12.438 9.61197 17.693 7.99997 19C6.38897 17.692 0.979 12.436 1 7.995C1 4.686 4.69097 1 7.99997 1Z" fill="#4285F4"/>
</svg>
